<svg width="319" height="204" viewBox="0 0 319 204" fill="none" xmlns="http://www.w3.org/2000/svg">
<g clip-path="url(#clip0_1201_11335)">
<path d="M76.3405 198.865H80.9103L83.0844 181.24L76.3398 181.241L76.3405 198.865Z" fill="#A0616A"/>
<path d="M75.1748 197.373L84.1742 197.373H84.1746C85.6956 197.373 87.1543 197.977 88.2298 199.053C89.3054 200.128 89.9096 201.587 89.9097 203.108V203.294L75.1751 203.295L75.1748 197.373Z" fill="#2F2E41"/>
<path d="M106.528 198.865H111.098L113.272 181.24L106.527 181.241L106.528 198.865Z" fill="#A0616A"/>
<path d="M105.362 197.373L114.362 197.373H114.362C115.883 197.373 117.342 197.977 118.417 199.053C119.493 200.128 120.097 201.587 120.097 203.108V203.294L105.363 203.295L105.362 197.373Z" fill="#2F2E41"/>
<path d="M218.315 203.322H12.7402V204.001H218.315V203.322Z" fill="#E6E6E6"/>
<path d="M72.5146 195.043H84.3523L91.9184 128.798L105.83 195.043H113.817V116.048L75.841 104.684L72.5146 195.043Z" fill="#2F2E41"/>
<path d="M92.6982 46.3971C98.3996 46.3971 103.021 41.7755 103.021 36.0745C103.021 30.3735 98.3996 25.752 92.6982 25.752C86.9969 25.752 82.375 30.3735 82.375 36.0745C82.375 41.7755 86.9969 46.3971 92.6982 46.3971Z" fill="#A0616A"/>
<path d="M76.6723 106.347C87.7491 115.009 99.9759 119.376 113.816 117.712C107.971 97.1887 106.237 76.8213 111.876 56.7327L100.234 51.4663L87.1472 50.6348L77.6358 53.4321C76.2978 53.826 75.1264 54.6488 74.302 55.7738C73.4777 56.8988 73.046 58.2637 73.0735 59.6581C73.4093 76.7901 72.2702 92.8232 76.6723 106.347Z" fill="#E6E6E6"/>
<path d="M82.818 30.8845C83.8112 29.0108 85.0731 25.2766 87.0776 24.584C88.1908 24.2149 89.3414 23.9699 90.5084 23.8532L93.9155 25.1636L92.0612 23.7215C92.4222 23.7 92.783 23.6824 93.1437 23.6687L95.4426 24.5528L94.2664 23.6381C96.4096 23.6161 98.6219 23.839 100.283 25.1436C101.698 26.2558 103.101 30.469 103.328 32.2548C103.57 33.9633 103.485 35.7023 103.078 37.379L102.496 37.9325C102.292 37.4656 102.139 36.9782 102.039 36.4787C101.83 35.5454 101.429 34.6658 100.862 33.896C100.294 33.1262 99.5726 32.483 98.7428 32.0075L98.7111 31.9896C97.7346 31.4401 96.5498 31.4655 95.43 31.5058L90.112 31.6971C88.8325 31.7432 87.4548 31.8241 86.4573 32.6266C85.7835 33.1686 85.3799 33.9687 84.996 34.7434C84.5004 35.7437 83.5318 39.5167 83.5318 39.5167C83.5318 39.5167 82.9838 38.8045 82.7211 39.3346C82.2999 37.9515 82.0438 36.5235 81.9582 35.0803C81.8744 33.6307 82.1708 32.1843 82.818 30.8845V30.8845Z" fill="#2F2E41"/>
<path d="M298.573 97.5423H179.398C177.36 97.54 175.406 96.7296 173.966 95.2889C172.525 93.8481 171.714 91.8947 171.712 89.8572V7.68518C171.714 5.64764 172.525 3.69422 173.966 2.25347C175.406 0.812714 177.36 0.0022953 179.398 0H298.573C300.611 0.0022953 302.565 0.812714 304.006 2.25347C305.446 3.69422 306.257 5.64764 306.259 7.68518V89.8572C306.257 91.8947 305.446 93.8481 304.006 95.2889C302.565 96.7296 300.611 97.54 298.573 97.5423V97.5423ZM179.398 0.678313C177.54 0.680418 175.759 1.41931 174.445 2.73289C173.131 4.04648 172.392 5.82748 172.39 7.68518V89.8572C172.392 91.7149 173.131 93.4959 174.445 94.8094C175.759 96.123 177.54 96.8619 179.398 96.864H298.573C300.431 96.8619 302.212 96.123 303.526 94.8094C304.84 93.4959 305.579 91.7149 305.581 89.8572V7.68518C305.579 5.82748 304.84 4.04648 303.526 2.73289C302.212 1.41931 300.431 0.680418 298.573 0.678313H179.398Z" fill="#F0F0F0"/>
<path d="M159.163 104.442V22.2699C159.165 20.3223 159.94 18.4551 161.317 17.0779C162.695 15.7007 164.562 14.926 166.51 14.9238H285.685C287.633 14.926 289.5 15.7007 290.878 17.0779C292.255 18.4551 293.03 20.3223 293.032 22.2699V104.442C293.03 106.39 292.255 108.257 290.878 109.634C289.5 111.011 287.633 111.786 285.685 111.788H166.51C164.562 111.786 162.695 111.011 161.317 109.634C159.94 108.257 159.165 106.39 159.163 104.442V104.442Z" fill="#E4E4E4"/>
<path d="M163.85 104.585V22.1239C163.85 21.5235 164.089 20.9479 164.514 20.5234C164.938 20.0989 165.514 19.8601 166.114 19.8594H286.079C286.68 19.8601 287.255 20.0989 287.68 20.5234C288.104 20.9479 288.343 21.5235 288.344 22.1239V104.585C288.343 105.185 288.104 105.761 287.68 106.186C287.255 106.61 286.68 106.849 286.079 106.85H166.114C165.514 106.849 164.938 106.61 164.514 106.186C164.089 105.761 163.85 105.185 163.85 104.585Z" fill="#F4F4F4"/>
<path d="M212.085 184.686C213.928 184.686 215.423 183.192 215.423 181.348C215.423 179.504 213.928 178.01 212.085 178.01C210.241 178.01 208.746 179.504 208.746 181.348C208.746 183.192 210.241 184.686 212.085 184.686Z" fill="#E6E6E6"/>
<path d="M225.996 184.686C227.84 184.686 229.334 183.192 229.334 181.348C229.334 179.504 227.84 178.01 225.996 178.01C224.152 178.01 222.657 179.504 222.657 181.348C222.657 183.192 224.152 184.686 225.996 184.686Z" fill="#E6E6E6"/>
<path d="M239.906 184.686C241.75 184.686 243.244 183.192 243.244 181.348C243.244 179.504 241.75 178.01 239.906 178.01C238.062 178.01 236.567 179.504 236.567 181.348C236.567 183.192 238.062 184.686 239.906 184.686Z" fill="#E6E6E6"/>
<path d="M226.097 87.5919C221.304 87.5919 216.617 86.1704 212.631 83.5073C208.646 80.8442 205.539 77.059 203.704 72.6304C201.87 68.2018 201.39 63.3286 202.325 58.6273C203.26 53.9259 205.569 49.6074 208.959 46.2178C212.348 42.8283 216.667 40.52 221.369 39.5848C226.07 38.6497 230.944 39.1296 235.373 40.964C239.802 42.7984 243.587 45.9048 246.25 49.8905C248.914 53.8761 250.335 58.562 250.335 63.3555V63.3555C250.328 69.7812 247.772 75.9416 243.228 80.4852C238.684 85.0288 232.523 87.5846 226.097 87.5919V87.5919Z" fill="#16ABF8"/>
<path d="M235.661 60.9634H228.488V53.7911C228.487 53.1577 228.235 52.5506 227.786 52.1031C227.338 51.6556 226.731 51.4043 226.097 51.4043C225.464 51.4043 224.856 51.6556 224.408 52.1031C223.96 52.5506 223.707 53.1577 223.706 53.7911V60.9634H216.533C215.9 60.9644 215.293 61.2168 214.845 61.665C214.398 62.1133 214.146 62.7208 214.146 63.3541C214.146 63.9875 214.398 64.595 214.845 65.0432C215.293 65.4915 215.9 65.7438 216.533 65.7449H223.706V72.9172C223.707 73.5506 223.96 74.1577 224.408 74.6052C224.856 75.0527 225.464 75.304 226.097 75.304C226.731 75.304 227.338 75.0527 227.786 74.6052C228.235 74.1577 228.487 73.5506 228.488 72.9172V65.7449H235.661C235.975 65.7456 236.286 65.6844 236.577 65.5648C236.867 65.4452 237.131 65.2695 237.354 65.0478C237.576 64.8261 237.753 64.5627 237.874 64.2726C237.995 63.9826 238.057 63.6716 238.057 63.3575C238.058 63.0433 237.996 62.7322 237.876 62.4418C237.756 62.1514 237.581 61.8875 237.359 61.6652C237.137 61.4428 236.873 61.2664 236.583 61.146C236.293 61.0256 235.982 60.9635 235.667 60.9634H235.661Z" fill="#F4F4F4"/>
<path d="M49.5163 183.083C48.9891 179.685 47.9606 176.383 46.4644 173.286L46.2463 172.835L44.6262 174.631L45.8266 171.956L45.7481 171.801C44.6888 169.704 43.5149 167.667 42.2316 165.7L41.9936 165.335L41.6761 165.687L41.8984 165.192L41.7871 165.025C40.1977 162.641 38.9766 161.133 38.9645 161.118L38.6192 160.693L38.3971 161.2C38.3564 161.293 34.3205 170.592 33.7859 179.781L33.7775 179.924L36.4937 183.207L33.7236 181.468L33.7284 182.1C33.7369 183.18 33.8104 184.258 33.9485 185.329C34.0705 186.251 34.2141 187.15 34.3793 188.028C34.6412 188.036 34.8958 188.115 35.1159 188.258C34.9245 187.277 34.7595 186.269 34.6208 185.234C34.5138 184.407 34.4464 183.567 34.4196 182.73L39.7775 186.094L34.4716 179.681C34.9547 171.912 37.9531 164.084 38.7949 162.018C39.2467 162.604 40.099 163.742 41.1185 165.261L39.2651 169.393L41.9075 166.463C43.0531 168.246 44.1084 170.086 45.0693 171.975L42.2152 178.337L46.0741 174.058C47.4219 176.956 48.3548 180.03 48.8455 183.188C49.5208 188.29 49.389 193.19 48.4742 196.987C47.5979 200.625 46.0535 202.86 44.2369 203.122C43.863 203.173 43.4826 203.151 43.1175 203.055C42.8247 203.263 42.4723 203.371 42.1133 203.362H42.0142C42.5777 203.674 43.2094 203.844 43.8538 203.856C44.013 203.856 44.172 203.844 44.3296 203.821C46.4653 203.515 48.171 201.149 49.1321 197.159C50.0675 193.276 50.2045 188.28 49.5163 183.083Z" fill="#E6E6E6"/>
<path d="M43.5396 203.586C40.7458 203.586 36.7178 202.049 32.7225 199.252C32.1344 198.837 31.5729 198.386 31.0411 197.9L30.5937 197.492L32.2856 197.004L30.0327 196.922L29.9377 196.822C25.7148 192.4 23.087 186.153 23.0608 186.091L22.8555 185.598L23.3894 185.622C23.4426 185.624 24.712 185.684 26.6199 185.955L26.7388 185.972V185.971L27.1571 186.034C28.7151 186.271 30.2585 186.595 31.78 187.006L31.9424 187.05L32.45 188.3L32.373 187.179L32.8387 187.313C35.0461 187.95 37.1426 188.922 39.0551 190.195C45.131 194.449 48.493 199.766 46.7158 202.304C46.1083 203.172 44.99 203.586 43.5396 203.586ZM31.959 197.804C32.3301 198.119 32.7163 198.418 33.1125 198.697C38.6773 202.594 44.6524 204.067 46.1599 201.915C47.6672 199.763 44.2383 194.652 38.6727 190.755C36.9556 189.613 35.0849 188.721 33.1166 188.105L33.4175 192.486L31.4408 187.617C30.1389 187.272 28.807 186.987 27.4736 186.77L27.6921 189.95L26.3315 186.599C25.2774 186.454 24.4276 186.376 23.9107 186.336C24.6154 187.883 26.944 192.662 30.3336 196.254L36.5508 196.482L31.959 197.804Z" fill="#E6E6E6"/>
<path d="M83.1649 113.115C83.1625 112.597 83.0467 112.087 82.8257 111.619C82.6046 111.152 82.2837 110.738 81.8856 110.408C81.4874 110.078 81.0217 109.839 80.5212 109.708C80.0207 109.577 79.4977 109.558 78.9888 109.651L72.7935 98.709L70.2373 103.948L76.1581 114.025C76.3713 114.87 76.8869 115.606 77.6071 116.096C78.3274 116.586 79.2023 116.794 80.0659 116.682C80.9296 116.57 81.7221 116.145 82.2933 115.487C82.8644 114.83 83.1746 113.985 83.1649 113.115V113.115Z" fill="#A0616A"/>
<path d="M110.867 125.277C110.622 124.821 110.48 124.318 110.452 123.801C110.423 123.285 110.508 122.768 110.7 122.288C110.893 121.808 111.188 121.376 111.566 121.022C111.944 120.669 112.394 120.402 112.886 120.242L113.115 107.67L118.503 111.366L117.46 122.737C117.675 123.581 117.573 124.475 117.173 125.249C116.774 126.022 116.104 126.623 115.291 126.936C114.479 127.249 113.579 127.253 112.764 126.947C111.948 126.642 111.273 126.047 110.867 125.277H110.867Z" fill="#A0616A"/>
<path d="M73.3462 111.613L77.7813 107.456L75.5053 85.0043L78.1386 53.2676C72.4182 55.0653 66.276 59.8945 65.2643 65.8044L61.6455 86.9446L73.3462 111.613Z" fill="#E6E6E6"/>
<path opacity="0.2" d="M75.9212 72.9473L72.3174 87.3604L77.7812 107.813L74.2578 88.4691L75.9212 72.9473Z" fill="black"/>
<path d="M111.599 119.373L118.806 120.205L117.119 66.6908C117.043 64.2997 116.281 61.9808 114.922 60.0115C113.564 58.0421 111.667 56.5055 109.459 55.5854L106.887 54.5137L107.58 79.5982L111.599 119.373Z" fill="#E6E6E6"/>
<path opacity="0.2" d="M108.901 80.4199L111.683 111.304L106.973 80.6353L108.901 80.4199Z" fill="black"/>
</g>
<defs>
<clipPath id="clip0_1201_11335">
<rect width="319" height="204" fill="white"/>
</clipPath>
</defs>
</svg>
