<svg width="84" height="84" viewBox="0 0 84 84" fill="none" xmlns="http://www.w3.org/2000/svg">
<path d="M42 52.5V52.535M42 31.5V38.5V31.5Z" stroke="#ED4C5C" stroke-width="4" stroke-linecap="round" stroke-linejoin="round"/>
<path d="M17.4999 66.5018H66.4999C67.642 66.4938 68.7648 66.2064 69.7703 65.6648C70.7758 65.1232 71.6335 64.3438 72.2687 63.3946C72.9038 62.4454 73.297 61.3552 73.414 60.2191C73.531 59.083 73.3683 57.9355 72.9399 56.8768L48.0899 14.0018C47.4846 12.9077 46.5972 11.9957 45.5201 11.3606C44.4429 10.7256 43.2153 10.3906 41.9649 10.3906C40.7145 10.3906 39.4869 10.7256 38.4098 11.3606C37.3327 11.9957 36.4453 12.9077 35.8399 14.0018L10.9899 56.8768C10.5697 57.9113 10.4031 59.0313 10.504 60.1433C10.6048 61.2554 10.9702 62.3272 11.5697 63.2692C12.1692 64.2112 12.9853 64.9962 13.95 65.5585C14.9146 66.1209 15.9998 66.4443 17.1149 66.5018" stroke="#ED4C5C" stroke-width="4" stroke-linecap="round" stroke-linejoin="round"/>
</svg>
