<svg width="320" height="245" viewBox="0 0 320 245" fill="none" xmlns="http://www.w3.org/2000/svg">
<g clip-path="url(#clip0_1201_11943)">
<path d="M124.614 23.6348H287.659C288.079 23.6348 288.448 23.6614 288.702 23.7008C288.716 23.703 288.729 23.7052 288.742 23.7074V56.9689C288.729 56.9711 288.716 56.9733 288.702 56.9755C288.448 57.0149 288.079 57.0415 287.659 57.0415H124.614C124.195 57.0415 123.826 57.0149 123.572 56.9755C123.558 56.9733 123.544 56.9711 123.531 56.9689V23.7074C123.544 23.7052 123.558 23.703 123.572 23.7008C123.826 23.6614 124.195 23.6348 124.614 23.6348ZM288.953 23.7573C288.953 23.7573 288.952 23.757 288.95 23.7561C288.952 23.7569 288.953 23.7573 288.953 23.7573ZM123.32 56.919C123.32 56.919 123.321 56.9194 123.323 56.9202C123.321 56.9194 123.32 56.919 123.32 56.919ZM123.32 23.7573C123.32 23.7573 123.321 23.7569 123.323 23.7561C123.321 23.7569 123.32 23.7573 123.32 23.7573Z" fill="white" stroke="#CACACA"/>
<path d="M124.614 62.7891H287.659C288.079 62.7891 288.448 62.8157 288.702 62.8551C288.716 62.8573 288.729 62.8595 288.742 62.8617V96.1232C288.729 96.1254 288.716 96.1276 288.702 96.1298C288.448 96.1692 288.079 96.1958 287.659 96.1958H124.614C124.195 96.1958 123.826 96.1692 123.572 96.1298C123.558 96.1276 123.544 96.1254 123.531 96.1232V62.8617C123.544 62.8595 123.558 62.8573 123.572 62.8551C123.826 62.8157 124.195 62.7891 124.614 62.7891ZM288.953 62.9116C288.953 62.9116 288.952 62.9113 288.95 62.9104C288.952 62.9112 288.953 62.9116 288.953 62.9116ZM123.32 96.0733C123.32 96.0733 123.321 96.0737 123.323 96.0745C123.321 96.0737 123.32 96.0733 123.32 96.0733ZM123.32 62.9116C123.32 62.9116 123.321 62.9112 123.323 62.9104C123.321 62.9112 123.32 62.9116 123.32 62.9116Z" fill="white" stroke="#CACACA"/>
<path d="M124.614 104.906H287.659C288.079 104.906 288.448 104.933 288.702 104.972C288.716 104.974 288.729 104.977 288.742 104.979V138.24C288.729 138.243 288.716 138.245 288.702 138.247C288.448 138.286 288.079 138.313 287.659 138.313H124.614C124.195 138.313 123.826 138.286 123.572 138.247C123.558 138.245 123.544 138.243 123.531 138.24V104.979C123.544 104.977 123.558 104.974 123.572 104.972C123.826 104.933 124.195 104.906 124.614 104.906ZM288.953 105.029C288.953 105.029 288.952 105.028 288.95 105.028C288.952 105.028 288.953 105.029 288.953 105.029ZM123.32 138.19C123.32 138.19 123.321 138.191 123.323 138.192C123.321 138.191 123.32 138.19 123.32 138.19ZM123.32 105.029C123.32 105.029 123.321 105.028 123.323 105.028C123.321 105.028 123.32 105.029 123.32 105.029Z" fill="white" stroke="#CACACA"/>
<path d="M270.09 43.3229H153.799C153.012 43.3229 152.257 43.0095 151.701 42.4516C151.145 41.8937 150.832 41.137 150.832 40.348C150.832 39.559 151.145 38.8023 151.701 38.2444C152.257 37.6865 153.012 37.373 153.799 37.373H270.09C270.877 37.373 271.632 37.6865 272.188 38.2444C272.744 38.8023 273.057 39.559 273.057 40.348C273.057 41.137 272.744 41.8937 272.188 42.4516C271.632 43.0095 270.877 43.3229 270.09 43.3229Z" fill="#E6E6E6"/>
<path d="M270.09 82.4753H153.799C153.012 82.4753 152.257 82.1619 151.701 81.604C151.145 81.046 150.832 80.2893 150.832 79.5003C150.832 78.7113 151.145 77.9547 151.701 77.3967C152.257 76.8388 153.012 76.5254 153.799 76.5254H270.09C270.877 76.5254 271.632 76.8388 272.188 77.3967C272.744 77.9547 273.057 78.7113 273.057 79.5003C273.057 80.2893 272.744 81.046 272.188 81.604C271.632 82.1619 270.877 82.4753 270.09 82.4753Z" fill="#E6E6E6"/>
<path d="M270.09 124.594H153.799C153.012 124.594 152.257 124.281 151.701 123.723C151.145 123.165 150.832 122.408 150.832 121.619C150.832 120.83 151.145 120.074 151.701 119.516C152.257 118.958 153.012 118.645 153.799 118.645H270.09C270.877 118.645 271.632 118.958 272.188 119.516C272.744 120.074 273.057 120.83 273.057 121.619C273.057 122.408 272.744 123.165 272.188 123.723C271.632 124.281 270.877 124.594 270.09 124.594Z" fill="#E6E6E6"/>
<path d="M289.05 45.742C301.646 45.742 311.857 35.5023 311.857 22.871C311.857 10.2397 301.646 0 289.05 0C276.454 0 266.243 10.2397 266.243 22.871C266.243 35.5023 276.454 45.742 289.05 45.742Z" fill="#16ABF8"/>
<path d="M279.548 21.3616C279.148 21.3616 278.766 21.5206 278.483 21.8036C278.201 22.0867 278.042 22.4706 278.042 22.8709C278.042 23.2712 278.201 23.6551 278.483 23.9381C278.766 24.2212 279.148 24.3802 279.548 24.3802H287.546V32.4002C287.546 32.7999 287.705 33.1828 287.988 33.4651C288.27 33.7473 288.652 33.9059 289.05 33.9059C289.449 33.9059 289.831 33.7473 290.113 33.4651C290.395 33.1828 290.554 32.7999 290.555 32.4002V24.3802H298.553C298.952 24.3802 299.335 24.2212 299.618 23.9381C299.9 23.6551 300.058 23.2712 300.058 22.8709C300.058 22.4706 299.9 22.0867 299.618 21.8036C299.335 21.5206 298.952 21.3616 298.553 21.3616H290.555V13.3411C290.555 12.9409 290.397 12.557 290.115 12.274C289.832 11.991 289.45 11.832 289.05 11.832C288.651 11.832 288.269 11.991 287.986 12.274C287.704 12.557 287.546 12.9409 287.546 13.3411V21.3616H279.548Z" fill="white"/>
<path d="M320 244.207H0V245H320V244.207Z" fill="#CACACA"/>
<path d="M267.395 226.117C268.867 226.636 270.447 226.766 271.983 226.495C273.519 226.223 274.96 225.56 276.166 224.568C279.239 221.982 280.201 217.722 280.985 213.779L283.303 202.111L278.451 205.461C274.961 207.871 271.392 210.358 268.975 213.849C266.559 217.339 265.504 222.105 267.446 225.882" fill="#E6E6E6"/>
<path d="M268.145 241.055C267.532 236.593 266.905 232.073 267.334 227.562C267.715 223.556 268.934 219.643 271.415 216.435C272.732 214.735 274.334 213.279 276.15 212.132C276.625 211.832 277.06 212.585 276.588 212.883C273.446 214.875 271.016 217.815 269.648 221.281C268.137 225.135 267.894 229.337 268.154 233.432C268.313 235.908 268.646 238.368 268.982 240.824C269.008 240.935 268.992 241.052 268.936 241.152C268.879 241.251 268.788 241.325 268.679 241.359C268.568 241.39 268.45 241.375 268.35 241.318C268.25 241.261 268.176 241.166 268.145 241.055H268.145Z" fill="#F2F2F2"/>
<path d="M264.682 234.389C263.933 235.277 262.968 235.956 261.88 236.362C260.793 236.767 259.62 236.885 258.474 236.703C255.533 236.203 253.318 233.833 251.335 231.599L245.471 224.988L249.842 225.308C252.985 225.537 256.207 225.787 259.067 227.115C261.926 228.443 264.39 231.102 264.561 234.257" fill="#E6E6E6"/>
<path d="M269.713 243.606C268.683 241.119 267.644 238.597 266.063 236.401C264.707 234.41 262.813 232.849 260.604 231.899C259.412 231.422 258.147 231.157 256.864 231.115C256.53 231.104 256.532 231.625 256.864 231.636C259.085 231.71 261.226 232.49 262.977 233.863C264.918 235.393 266.31 237.486 267.411 239.677C268.076 241.001 268.646 242.371 269.213 243.74C269.233 243.805 269.276 243.861 269.335 243.895C269.394 243.929 269.463 243.939 269.529 243.924C269.596 243.906 269.652 243.863 269.687 243.803C269.721 243.743 269.731 243.673 269.713 243.606Z" fill="#F2F2F2"/>
<path d="M272.541 233.896C273.172 234.858 274.04 235.64 275.06 236.168C276.081 236.696 277.22 236.952 278.367 236.91C281.316 236.77 283.775 234.706 285.988 232.745L292.534 226.949L288.202 226.741C285.086 226.592 281.89 226.452 278.922 227.416C275.955 228.379 273.218 230.698 272.675 233.779" fill="#E6E6E6"/>
<path d="M266.417 243.621C269.358 238.403 272.769 232.604 278.864 230.75C280.558 230.236 282.335 230.052 284.099 230.208C284.655 230.256 284.516 231.115 283.961 231.067C281.005 230.821 278.055 231.604 275.607 233.284C273.251 234.892 271.417 237.127 269.865 239.498C268.915 240.95 268.062 242.463 267.21 243.975C266.938 244.458 266.142 244.11 266.417 243.621Z" fill="#F2F2F2"/>
<path d="M312.335 235.488C311.199 235.888 309.98 235.988 308.794 235.779C307.609 235.57 306.497 235.058 305.566 234.292C303.195 232.297 302.452 229.009 301.848 225.965L300.059 216.961L303.805 219.547C306.498 221.407 309.252 223.326 311.117 226.02C312.981 228.714 313.796 232.391 312.297 235.306" fill="#E6E6E6"/>
<path d="M311.301 244.034C311.631 241.627 311.969 239.19 311.738 236.758C311.588 234.589 310.825 232.508 309.538 230.758C308.828 229.842 307.963 229.056 306.984 228.438C306.729 228.276 306.494 228.682 306.747 228.843C308.441 229.917 309.752 231.502 310.49 233.371C311.304 235.45 311.435 237.715 311.295 239.923C311.21 241.258 311.03 242.585 310.849 243.909C310.834 243.969 310.843 244.032 310.874 244.085C310.904 244.139 310.953 244.179 311.012 244.197C311.072 244.213 311.135 244.205 311.189 244.174C311.243 244.143 311.283 244.093 311.3 244.034L311.301 244.034Z" fill="#F2F2F2"/>
<ellipse cx="140.185" cy="40.3391" rx="2.95749" ry="2.9661" fill="#E5E5E5"/>
<ellipse cx="140.185" cy="79.4915" rx="2.95749" ry="2.9661" fill="#E5E5E5"/>
<ellipse cx="140.185" cy="121.611" rx="2.95749" ry="2.9661" fill="#E5E5E5"/>
<path d="M130.48 106.258C130.08 105.627 129.555 105.089 128.938 104.679C128.321 104.27 127.627 103.998 126.9 103.883C126.174 103.767 125.431 103.809 124.722 104.007C124.012 104.205 123.352 104.554 122.783 105.032C122.604 105.183 122.436 105.348 122.279 105.524L101.762 102.47L100.62 86.6954C100.533 85.4853 99.9785 84.3602 99.0798 83.5676C98.181 82.7751 97.0111 82.3801 95.8275 82.4695C94.6439 82.5589 93.5435 83.1253 92.7684 84.0443C91.9933 84.9632 91.6069 86.1593 91.6943 87.3695C91.6964 87.3976 91.6987 87.4256 91.7012 87.4536L93.7012 109.588L93.7108 109.637C93.9711 110.488 94.4928 111.231 95.1983 111.754C95.9039 112.278 96.7559 112.555 97.6277 112.545L121.76 112.119C121.854 112.265 121.955 112.406 122.063 112.542C122.53 113.123 123.111 113.596 123.77 113.931C124.428 114.267 125.148 114.456 125.883 114.486C126.618 114.517 127.351 114.389 128.034 114.11C128.716 113.831 129.334 113.407 129.846 112.867C129.95 112.759 130.048 112.646 130.141 112.53C130.837 111.654 131.244 110.576 131.305 109.45C131.365 108.324 131.077 107.207 130.48 106.258Z" fill="#FFB7B7"/>
<path d="M89.317 238.473L94.928 238.473L97.5972 215.338L89.3162 215.338L89.317 238.473Z" fill="#FFB7B7"/>
<path d="M87.5421 243.813L106.47 243.813V243.57C106.47 241.589 105.693 239.69 104.312 238.289C102.93 236.889 101.056 236.102 99.1026 236.102H99.1021L87.5418 236.102L87.5421 243.813Z" fill="#2F2E41"/>
<path d="M47.9114 233.036L53.6326 234.915L63.8818 214.553L55.4375 211.779L47.9114 233.036Z" fill="#FFB7B7"/>
<path d="M44.9541 237.821L62.8201 243.813L62.8972 243.59C63.5262 241.777 63.3968 239.792 62.5376 238.073C61.6783 236.353 60.1596 235.04 58.3154 234.421L58.3149 234.421L47.4029 230.762L44.9541 237.821Z" fill="#2F2E41"/>
<path d="M82.743 39.8978C82.743 39.8978 88.524 37.9531 92.2404 45.7319C95.9567 53.5106 101.738 62.0673 101.738 62.0673L98.4343 62.8451C98.4343 62.8451 97.6085 57.4 95.5438 56.6221L96.3697 63.623C96.3697 63.623 71.5937 71.7907 60.4446 62.8452L60.8575 60.1226C60.8575 60.1226 59.2058 60.5115 59.2058 62.8452L57.967 61.6784C57.967 61.6784 59.2058 59.3447 62.9222 56.2332C65.3615 54.191 66.1997 50.3056 66.4878 47.8764C66.7162 45.8198 67.582 43.8908 68.9596 42.3693C71.4294 39.6733 75.9296 36.8079 82.743 39.8978Z" fill="#2F2E41"/>
<path d="M80.4439 67.0337C74.5637 67.0337 69.7969 62.253 69.7969 56.3557C69.7969 50.4584 74.5637 45.6777 80.4439 45.6777C86.324 45.6777 91.0908 50.4584 91.0908 56.3557C91.0908 62.253 86.324 67.0337 80.4439 67.0337Z" fill="#FFB7B7"/>
<path d="M94.5738 75.9885L96.5455 75.3379C96.5455 75.3379 100.489 76.9645 100.489 79.8923C100.489 82.8201 101.146 94.5314 101.146 94.5314L92.2735 95.5074L94.5738 75.9885Z" fill="#CBCBCB"/>
<path d="M60.1875 139.474C60.978 138.572 61.4242 137.413 61.445 136.205C61.4658 134.998 61.0598 133.823 60.3009 132.894L65.6513 87.3148C65.7037 86.24 65.3348 85.1879 64.6254 84.3895C63.916 83.5911 62.9242 83.1116 61.8676 83.0562C60.8111 83.0008 59.7761 83.3741 58.9898 84.0941C58.2035 84.8141 57.7301 85.822 57.6736 86.8967C57.6729 86.9115 57.6722 86.9264 57.6716 86.9413L52.8851 132.569C52.7115 132.746 52.5515 132.937 52.4066 133.139C52.0227 133.679 51.7471 134.29 51.5956 134.939C51.444 135.587 51.4195 136.26 51.5235 136.918C51.6274 137.576 51.8577 138.206 52.2013 138.774C52.5449 139.341 52.995 139.834 53.5259 140.225C53.5809 140.265 53.6367 140.305 53.6933 140.343C54.308 140.757 55.0051 141.027 55.7346 141.134C56.4641 141.241 57.2079 141.183 57.9127 140.963C58.7927 140.692 59.5806 140.176 60.1875 139.474Z" fill="#FFB7B7"/>
<path d="M65.0649 94.3218L56.1925 93.3459C56.1925 93.3459 56.8497 81.6346 56.8497 78.7067C56.8497 75.7789 60.793 74.1523 60.793 74.1523L62.7647 74.803L65.0649 94.3218Z" fill="#CBCBCB"/>
<path d="M93.609 110.344C93.609 110.344 101.087 124.004 101.087 140.571C101.087 157.139 101.738 233.153 101.738 233.153C101.738 233.153 91.9833 237.701 86.1306 232.179L80.9282 148.043L60.4437 230.555C60.4437 230.555 50.6892 232.504 46.1371 229.255L54.9161 171.757C54.9161 171.757 58.4928 117.832 68.2473 113.934C78.0018 110.035 93.609 110.344 93.609 110.344Z" fill="#2F2E41"/>
<path d="M91.887 56.3561C88.0965 53.6764 85.0283 50.5899 82.9986 46.9185C82.9986 46.9185 76.0425 54.4686 71.7915 54.846C67.5406 55.2235 71.4051 45.786 71.4051 45.786L79.1341 43.8984L86.4767 44.6534L92.2734 48.4285L91.887 56.3561Z" fill="#2F2E41"/>
<path d="M69.9786 72.3909C69.9786 72.3909 69.6753 72.2268 87.8136 72.8928L95.4051 74.9999L96.4141 75.28C96.4141 75.28 95.4586 94.5404 92.9106 98.0715C90.3626 101.603 90.9996 103.529 91.6366 103.85C92.2736 104.171 93.8661 103.529 92.9106 105.134C91.9551 106.739 90.6811 105.776 91.9551 106.739C93.2291 107.702 93.8661 111.233 93.8661 111.233L65.8382 115.085C65.8382 115.085 64.8827 102.566 62.3347 96.1455C59.7867 89.7253 59.1497 87.1573 59.1497 87.1573L61.0607 74.317L69.9786 72.3909Z" fill="#CBCBCB"/>
</g>
<defs>
<clipPath id="clip0_1201_11943">
<rect width="320" height="245" fill="white"/>
</clipPath>
</defs>
</svg>
